<mxfile host="app.diagrams.net" modified="2020-11-18T07:31:30.675Z" agent="5.0 (Windows)" etag="IyBIDZr7KlxMBK5i7Z7V" version="13.9.9" type="github">
  <diagram id="ZByoU3mniQh8ol8-IKdv" name="Page-1">
    <mxGraphModel dx="1038" dy="547" grid="1" gridSize="10" guides="1" tooltips="1" connect="1" arrows="1" fold="1" page="1" pageScale="1" pageWidth="827" pageHeight="1169" math="0" shadow="0">
      <root>
        <mxCell id="0" />
        <mxCell id="1" parent="0" />
      </root>
    </mxGraphModel>
  </diagram>
</mxfile>
